<svg version="1.2" xmlns="http://www.w3.org/2000/svg" viewBox="0 0 225 225" width="510" height="510"><style>.a{fill:#010101}</style><path class="a" d="m226 128.5c-1.3 6-2.3 11.7-4 17.1-10.9 37.1-34.2 62.8-70.5 76.4-7.1 2.7-9.8 0.7-9.9-7 0-9 0.1-18 0-27-0.1-7.7-1-15.2-7.2-21.8 4.2-0.8 7.8-1.5 11.4-2.2 23.3-4.7 37.4-21 39.2-44.6 1-13.9-0.5-27-10.1-38-0.6-0.7-0.5-2.4-0.2-3.5 2.2-7.9 1.5-15.7-0.6-23.6-1.1-4.5-4-5.3-7.3-4.1-7.1 2.7-14.2 5.6-20.9 9.1-3.2 1.7-5.8 2.3-9.2 1.4-15.5-3.7-31-3.7-46.5 0.1-3.5 0.8-6.1 0-9.2-1.6-6.5-3.3-13.2-6.3-20-8.7-5.7-2-6.7-0.9-8.4 4.9-2.2 7.3-2.3 14.6-0.5 22.1 0.4 1.6-0.1 3.8-1.1 5.1-22.2 28.5-5.5 74.2 29.7 81.3 3.8 0.8 7.5 1.4 10.7 2.1-1.8 4.4-3.5 8.8-5.4 13.2-0.4 1-1.4 2.3-2.4 2.6-11.8 3.7-21.6 3.6-29.5-8.9-3.7-5.9-8.4-10.5-15.1-12.3-2.5-0.6-5.3-0.1-8-0.1q-0.3 0.8-0.6 1.5c1.5 1.6 3.1 3.2 4.5 4.9 3.7 4.2 9 7.8 10.6 12.7 5.4 16.5 19.7 19.2 35.3 17.9 1.3-0.1 2.6-0.4 4.8-0.7 0 7.2 0.2 14.2-0.1 21.1-0.3 4.7-3.8 6.3-8.8 4.6-19.7-6.8-36.2-18.2-49.5-34.1-14.1-17-22.5-36.4-25.8-58.3-0.4-8.8-0.4-17.5 0-26.8 0.9-3.7 1.3-6.8 1.9-9.9 12.3-57.6 65.2-96 123.7-88.5 47.4 6.2 78.4 33.3 93.9 78.2 2.3 6.8 3.4 13.9 5.1 20.9 0 8 0 16 0 24.5z"/></svg>