<svg version="1.2" xmlns="http://www.w3.org/2000/svg" viewBox="0 0 225 225" width="510" height="510">
	<title>youtube-svg</title>
	<style>
		.s0 { fill: #010101 } 
	</style>
	<path id="Layer" fill-rule="evenodd" class="s0" d="m1 150c0-26.7 0-53.4 0.4-80.7 2.1-12.4 5.5-23.6 17.7-28.2 8.2-3.2 17.2-5.7 26-5.9 40.9-0.8 81.9-0.8 122.9-0.7 9.5 0 19 1 28.3 2.6 16.5 2.7 25 11.6 28 28 0.4 2.3 1.1 4.6 1.7 6.9 0 1.1 0 2.1-0.3 3.7-0.1 1.5 0.1 2.4 0.3 3.3 0 23.4 0 46.7-0.4 70.7-0.8 3-1.1 5.5-1.6 8-2.9 16.2-11.3 27.8-28 31.8-5.4 1.3-11.1 2.4-16.7 2.5-39.4 0.3-78.9 0.5-118.3 0.6-7 0-14-0.7-20.9-1.6-20.8-2.7-32.5-13.2-36.9-32.2-0.7-2.9-1.5-5.9-2.2-8.8zm135.9-26.7c2.5-1.2 5.4-2.1 7.4-3.9 2.1-2 4.6-4.8 4.7-7.3 0-2.3-2.5-5.5-4.8-6.7-14.7-8-29.6-15.6-44.5-23.2-7-3.6-12.2-0.4-12.2 7.6q-0.2 22.7 0 45.5c0 8.2 5.3 11.2 12.7 7.4 12-6.3 24.1-12.6 36.7-19.4z"/>
</svg>